<svg xmlns="http://www.w3.org/2000/svg" version="1.1" xmlns:xlink="http://www.w3.org/1999/xlink" xmlns:svgjs="http://svgjs.dev/svgjs" viewBox="0 0 800 800" opacity="1"><defs><linearGradient x1="50%" y1="0%" x2="50%" y2="100%" id="nnneon-grad"><stop stop-color="hsl(206, 75%, 49%)" stop-opacity="1" offset="0%"></stop><stop stop-color="hsl(331, 90%, 56%)" stop-opacity="1" offset="100%"></stop></linearGradient><filter id="nnneon-filter" x="-100%" y="-100%" width="400%" height="400%" filterUnits="objectBoundingBox" primitiveUnits="userSpaceOnUse" color-interpolation-filters="sRGB">
	<feGaussianBlur stdDeviation="11 13" x="0%" y="0%" width="100%" height="100%" in="SourceGraphic" edgeMode="none" result="blur"></feGaussianBlur></filter><filter id="nnneon-filter2" x="-100%" y="-100%" width="400%" height="400%" filterUnits="objectBoundingBox" primitiveUnits="userSpaceOnUse" color-interpolation-filters="sRGB">
	<feGaussianBlur stdDeviation="0 9" x="0%" y="0%" width="100%" height="100%" in="SourceGraphic" edgeMode="none" result="blur"></feGaussianBlur></filter></defs><g stroke-width="16" stroke="url(#nnneon-grad)" fill="none" transform="rotate(23, 400, 400)"><path d="M387.6569753977501 235.55664748301857C392.7137206246827 225.33849672489222 407.2862908837788 225.33849672489222 412.3430361107114 235.55664748301857L569.0539393212913 552.2284317733399C573.5832516991184 561.3806999591227 566.9235512858706 572.1070040366221 556.7122860740773 572.1070040366221H243.28772543438424C233.07646022259087 572.1070040366221 226.4167598093431 561.3806999591227 230.94607218717022 552.2284317733399L387.6569753977501 235.55664748301857Z " filter="url(#nnneon-filter)"></path><path d="M399.6569753977501 235.55664748301857C404.7137206246827 225.33849672489222 419.2862908837788 225.33849672489222 424.3430361107114 235.55664748301857L581.0539393212913 552.2284317733399C585.5832516991184 561.3806999591227 578.9235512858706 572.1070040366221 568.7122860740773 572.1070040366221H255.28772543438424C245.07646022259087 572.1070040366221 238.4167598093431 561.3806999591227 242.94607218717022 552.2284317733399L399.6569753977501 235.55664748301857Z " filter="url(#nnneon-filter2)" opacity="0.1"></path><path d="M375.6569753977501 235.55664748301857C380.7137206246827 225.33849672489222 395.2862908837788 225.33849672489222 400.3430361107114 235.55664748301857L557.0539393212913 552.2284317733399C561.5832516991184 561.3806999591227 554.9235512858706 572.1070040366221 544.7122860740773 572.1070040366221H231.28772543438424C221.07646022259087 572.1070040366221 214.4167598093431 561.3806999591227 218.94607218717022 552.2284317733399L375.6569753977501 235.55664748301857Z " filter="url(#nnneon-filter2)" opacity="0.1"></path><path d="M387.6569753977501 235.55664748301857C392.7137206246827 225.33849672489222 407.2862908837788 225.33849672489222 412.3430361107114 235.55664748301857L569.0539393212913 552.2284317733399C573.5832516991184 561.3806999591227 566.9235512858706 572.1070040366221 556.7122860740773 572.1070040366221H243.28772543438424C233.07646022259087 572.1070040366221 226.4167598093431 561.3806999591227 230.94607218717022 552.2284317733399L387.6569753977501 235.55664748301857Z "></path></g></svg>