<svg xmlns="http://www.w3.org/2000/svg" version="1.1" xmlns:xlink="http://www.w3.org/1999/xlink" xmlns:svgjs="http://svgjs.dev/svgjs" viewBox="0 0 800 800" opacity="1"><defs><filter id="nnneon-filter" x="-100%" y="-100%" width="400%" height="400%" filterUnits="objectBoundingBox" primitiveUnits="userSpaceOnUse" color-interpolation-filters="sRGB">
	<feGaussianBlur stdDeviation="20 18" x="0%" y="0%" width="100%" height="100%" in="SourceGraphic" edgeMode="none" result="blur"></feGaussianBlur></filter><filter id="nnneon-filter2" x="-100%" y="-100%" width="400%" height="400%" filterUnits="objectBoundingBox" primitiveUnits="userSpaceOnUse" color-interpolation-filters="sRGB">
	<feGaussianBlur stdDeviation="17 9" x="0%" y="0%" width="100%" height="100%" in="SourceGraphic" edgeMode="none" result="blur"></feGaussianBlur></filter></defs><g stroke-width="13" stroke="hsl(28, 71%, 62%)" fill="none" transform="rotate(163, 400, 400)"><path d="M387.6569753977501 235.55664748301857C392.7137206246827 225.33849672489222 407.2862908837788 225.33849672489222 412.3430361107114 235.55664748301857L569.0539393212913 552.2284317733399C573.5832516991184 561.3806999591227 566.9235512858706 572.1070040366221 556.7122860740773 572.1070040366221H243.28772543438424C233.07646022259087 572.1070040366221 226.4167598093431 561.3806999591227 230.94607218717022 552.2284317733399L387.6569753977501 235.55664748301857Z " filter="url(#nnneon-filter)"></path><path d="M413.6569753977501 235.55664748301857C418.7137206246827 225.33849672489222 433.2862908837788 225.33849672489222 438.3430361107114 235.55664748301857L595.0539393212913 552.2284317733399C599.5832516991184 561.3806999591227 592.9235512858706 572.1070040366221 582.7122860740773 572.1070040366221H269.28772543438424C259.07646022259087 572.1070040366221 252.4167598093431 561.3806999591227 256.9460721871702 552.2284317733399L413.6569753977501 235.55664748301857Z " filter="url(#nnneon-filter2)" opacity="0.17"></path><path d="M361.6569753977501 235.55664748301857C366.7137206246827 225.33849672489222 381.2862908837788 225.33849672489222 386.3430361107114 235.55664748301857L543.0539393212913 552.2284317733399C547.5832516991184 561.3806999591227 540.9235512858706 572.1070040366221 530.7122860740773 572.1070040366221H217.28772543438424C207.07646022259087 572.1070040366221 200.4167598093431 561.3806999591227 204.94607218717022 552.2284317733399L361.6569753977501 235.55664748301857Z " filter="url(#nnneon-filter2)" opacity="0.17"></path><path d="M387.6569753977501 235.55664748301857C392.7137206246827 225.33849672489222 407.2862908837788 225.33849672489222 412.3430361107114 235.55664748301857L569.0539393212913 552.2284317733399C573.5832516991184 561.3806999591227 566.9235512858706 572.1070040366221 556.7122860740773 572.1070040366221H243.28772543438424C233.07646022259087 572.1070040366221 226.4167598093431 561.3806999591227 230.94607218717022 552.2284317733399L387.6569753977501 235.55664748301857Z "></path></g></svg>